# xmcd
#
# Track frame offsets:
#	150
#	35247
#	54420
#	67659
#	89820
#	106334
#	131460
#	145573
#	161878
#	177791
#	195335
#	221325
#	256449
#	269619
#
# Disc length: 3734 seconds
#
# Revision: 1
# Processed by: cddbd v1.5.2PL0 Copyright (c) Steve Scherf et al.
# Submitted via: audiograbber 1.83.01
#
DISCID=c90e940e
DTITLE=Various Artist - World Music From Serbia- Etnoumlje
DYEAR=2008
DGENRE=World music
TTITLE0=Boris Kovach and La Campanella orch. - Damara of Istanbul
TTITLE1=Slavisha Malenovich and A Priori - Shala
TTITLE2=Alice in Wonderland - Dokonanije
TTITLE3=Shira U'tfila -Estas casas tan ermosas
TTITLE4=Duo Moderato - Igra za dvoje
TTITLE5=Dragomir Milenkovich Yoga - Nais
TTITLE6=Izvor - Shetnala se kuzum Stana
TTITLE7=Trio Balkanske Zice ( Zoran Starchevich and sons) - Sedam zrna
TTITLE8=Arhai - Shanama Deus
TTITLE9=Pachamama - Recuerdos de Calahuayo
TTITLE10=Teodulija - Zemi me, zemi
TTITLE11=Magistar Ludi - Afrika
TTITLE12=Dobrivoje Todorovich - Narodna srpska
TTITLE13=Srdjan Asanovich - Moba prela kod kneza Lazara
EXTD=
EXTT0=
EXTT1=
EXTT2=
EXTT3=
EXTT4=
EXTT5=
EXTT6=
EXTT7=
EXTT8=
EXTT9=
EXTT10=
EXTT11=
EXTT12=
EXTT13=
PLAYORDER=
